<svg xmlns="http://www.w3.org/2000/svg" xml:space="preserve" width="237.14" height="60" viewBox="0 0 237.14 60"><g transform="matrix(1.2344457,0,0,1.2344457,4.8132802,4.6941753)"><path d="M 26.168,5.381 C 23.004,2.737 19.868,0.583 15.796,0.264 12.701,0.021 11.077,2.542 9.612,5.146 7.166,9.496 -0.69,26.159 0.225,32.127 2.183,44.903 26.573,41.248 35.526,35.429 42.461,30.923 38.741,15.886 26.168,5.381 m 8.179,22.048 c -0.05,0.537 -0.126,1.066 -0.233,1.582 -0.801,3.889 -4.259,5.874 -7.683,6.843 -3.253,0.921 -6.56,1.646 -9.905,2.097 -2.77,0.374 -5.562,0.288 -8.327,-0.982 C 1.777,34.02 4.404,26.527 6.129,22.416 8.37,17.075 10.195,11.673 12.833,6.207 c 0.891,-1.847 3.262,-3.28 5.513,-2.436 2.589,0.972 4.949,2.633 6.867,4.622 2.666,2.768 5.033,5.398 6.763,8.888 1.4,2.824 2.674,6.865 2.371,10.148 M 29.984,21.578 C 29.17,19.515 24.882,10.097 19.978,7.334 c -3.261,-1.838 -5.319,2.539 -6.134,4.311 -1.432,3.118 -2.732,6.298 -4.108,9.443 -1.344,3.071 -2.575,6.828 -1.777,10.325 0.551,2.414 2.906,3.672 5.042,3.83 3.108,0.231 11.568,-1.795 13.024,-2.446 3.425,-1.528 4.409,-3.368 4.947,-5.47 0.444,-1.742 -0.297,-3.996 -0.988,-5.749 m -7.907,9.571 c -1.854,0.623 -6.869,1.745 -10.031,0.777 -2.663,-0.814 -1.334,-5.455 -0.654,-7.403 0.925,-2.651 5.166,-12.701 5.959,-13.447 1.976,-1.86 4.171,1.335 5.574,3.322 9.699,12.466 1.917,15.822 -0.848,16.751 m 35.55,-1.501 H 54.401 L 53.434,26.729 H 53.39 l -1.841,0.649 h -2.828 l -0.73,2.271 h -3.095 l 4.465,-13.3 h 3.8 z m -7.987,-5.19 h 3.11 l -1.546,-4.866 h -0.019 z m 18.707,5.19 h -3.244 v -5.562 c 0,-0.959 -0.608,-1.534 -1.521,-1.534 -1.216,0 -1.723,0.863 -1.723,2.301 v 4.794 H 58.94 v -9.731 h 2.919 v 1.298 h 0.02 c 0.689,-0.863 1.703,-1.342 2.919,-1.342 2.332,0 3.548,1.342 3.548,3.814 v 5.962 z m 9.083,-9.732 h 2.919 v 8.82 c 0,2.893 -1.916,5.015 -5.11,5.015 -2.007,0 -3.376,-0.578 -4.38,-1.35 l 1.551,-2.025 c 0.511,0.328 1.369,0.772 2.646,0.772 1.588,0 2.372,-0.984 2.372,-2.411 V 28.35 H 77.41 c -0.529,0.868 -1.533,1.35 -2.81,1.35 -2.738,0 -4.38,-2.122 -4.38,-4.919 0,-2.797 1.642,-4.918 4.38,-4.918 1.277,0 2.281,0.482 2.81,1.35 h 0.018 v -1.297 z m -0.093,4.819 c 0,-1.323 -0.921,-2.205 -2.205,-2.205 -1.285,0 -2.205,0.883 -2.205,2.205 0,1.323 0.92,2.205 2.205,2.205 1.285,10e-4 2.205,-0.881 2.205,-2.205 m 8.203,4.913 h -2.92 v -13.3 h 2.919 v 13.3 z m 1.472,-4.817 c 0,-2.877 2.11,-4.986 5.178,-4.986 3.069,0 5.178,2.109 5.178,4.986 0,2.877 -2.11,4.986 -5.178,4.986 -3.068,0 -5.178,-2.109 -5.178,-4.986 m 7.192,0 c 0,-1.323 -0.729,-2.301 -2.014,-2.301 -1.285,0 -2.013,0.978 -2.013,2.301 0,1.323 0.729,2.301 2.013,2.301 1.285,0 2.014,-0.977 2.014,-2.301 m 16.529,4.817 h -3.225 l -0.967,-2.919 h -0.043 l -1.842,0.649 h -2.828 l -0.73,2.271 h -3.094 l 4.465,-13.3 h 3.8 z m -7.987,-5.19 h 3.11 l -1.546,-4.866 h -0.019 z m 24.315,-0.649 v 5.839 h -2.919 v -5.562 c 0,-0.959 -0.584,-1.534 -1.265,-1.534 -1.168,0 -1.654,0.863 -1.654,2.301 v 4.794 h -3.244 v -5.562 c 0,-0.959 -0.584,-1.534 -1.265,-1.534 -1.168,0 -1.654,0.863 -1.654,2.301 v 4.794 h -2.919 v -9.731 h 2.919 v 1.298 h 0.165 c 0.556,-0.889 1.515,-1.369 2.665,-1.369 1.362,0 2.838,1.693 2.838,1.693 h 0.038 c 0.575,-0.863 1.439,-1.63 2.973,-1.63 2.301,0 3.356,1.342 3.356,3.816 m 11.644,2.032 h -6.812 c 0.288,0.921 1.017,1.438 2.072,1.438 0.959,0 1.572,-0.441 1.917,-0.959 l 2.302,1.534 c -0.863,1.055 -2.206,1.918 -4.315,1.918 -3.164,0 -5.274,-2.109 -5.274,-4.986 0,-2.877 2.11,-4.986 5.178,-4.986 2.877,0 4.89,1.918 4.89,5.139 0,0.288 0,0.595 -0.038,0.902 m -3.03,-1.946 c -0.096,-0.959 -0.575,-1.63 -1.822,-1.63 -0.997,0 -1.668,0.595 -1.918,1.63 z m 10.57,-0.851 c -2.627,0 -2.919,0.608 -2.919,2.432 v 4.258 h -2.919 v -9.731 h 2.919 v 1.622 h 0.02 c 0.565,-1.216 1.343,-1.824 2.9,-1.824 v 3.243 z m 0.937,-5.606 c 0,-0.959 0.767,-1.726 1.726,-1.726 0.959,0 1.726,0.767 1.726,1.726 0,0.959 -0.767,1.726 -1.726,1.726 -0.959,0 -1.726,-0.767 -1.726,-1.726 m 3.28,12.296 h -2.919 v -9.731 h 2.919 z m 8.61,-3.666 2.493,1.457 c -0.94,1.477 -2.493,2.378 -4.507,2.378 -2.972,0 -5.082,-2.109 -5.082,-4.986 0,-2.877 2.11,-4.986 5.178,-4.986 1.918,0 3.471,0.901 4.411,2.378 l -2.493,1.457 c -0.479,-0.805 -1.112,-1.151 -1.918,-1.151 -1.285,0 -2.013,0.978 -2.013,2.301 0,1.323 0.729,2.301 2.013,2.301 0.806,0.001 1.439,-0.344 1.918,-1.149 m 10.854,-4.768 v -1.298 h 2.919 v 9.731 H 169.88 V 28.35 h -0.019 c -0.445,0.691 -1.217,1.131 -2.203,1.268 -2.746,0.383 -5.108,-1.845 -5.194,-4.616 -0.09,-2.929 1.614,-5.103 4.504,-5.103 1.315,0 2.348,0.469 2.892,1.315 z m -0.018,3.617 c 0,-1.419 -0.921,-2.301 -2.205,-2.301 -1.286,0 -2.206,0.883 -2.206,2.301 0,1.419 0.92,2.301 2.206,2.301 1.284,0 2.205,-0.882 2.205,-2.301 m 14.29,4.817 h -3.244 v -5.562 c 0,-0.959 -0.547,-1.534 -1.368,-1.534 -1.095,0 -1.551,0.863 -1.551,2.301 v 4.794 h -2.919 v -9.731 h 2.919 v 1.298 h 0.02 c 0.654,-0.863 1.617,-1.342 2.773,-1.342 2.215,0 3.371,1.342 3.371,3.814 v 5.962 z" style="fill:#031795"/><path d="m 24.61,22.599 c -0.819,-1.778 -2.205,-4.122 -4.002,-5.73 -0.693,-0.619 -2.684,-1.347 -3.292,0.313 -1.097,2.892 -1.956,5.883 -2.775,8.776 -0.226,0.799 -0.595,2.803 0.257,3.333 1.951,1.218 7.477,-2.391 9.185,-3.478 0.975,-0.617 1.1,-2.187 0.627,-3.214 m -2.599,1.668 c -1.228,1.086 -3.266,2.431 -4.683,2.375 -1.459,-0.057 0.589,-6.426 1.777,-7.395 0.96,-0.782 3.05,2.816 3.173,3.195 0.203,0.621 0.179,1.43 -0.267,1.825" style="fill:red"/></g></svg>