<?xml version="1.0"?>
<svg xmlns="http://www.w3.org/2000/svg" xmlns:xlink="http://www.w3.org/1999/xlink" width="200" height="91.18"
	 viewBox="0 0 200 91.18">
<style type="text/css">
	.st0{fill:#EF7D00;}
	.st1{fill:#00617D;}
</style>
<g>
	<path class="st0" d="M90.33,41.7c3.02-0.45,6.19-0.69,9.45-0.69c10.96,0,20.83,2.68,27.71,6.96c-7.64-3.07-17.26-4.89-27.71-4.89
		c-3.86,0-7.6,0.25-11.17,0.72c0.23-0.25,0.42-0.48,0.52-0.61c0.13-0.17,0.4-0.75,0.56-0.9C89.9,42.1,90.11,41.9,90.33,41.7
		 M72.07,47.98c3.38-2.1,7.47-3.81,12.06-5.01c-0.06,0.28-0.15,0.6-0.31,0.9c-0.14,0.26-0.3,0.53-0.44,0.8
		C79.28,45.49,75.48,46.61,72.07,47.98"/>
	<path class="st1" d="M85.87,28.46c1-0.46,12.26-8.46,14.1-9.8c0.01-0.16-0.01-0.28-0.02-0.4c0-0.07,0.04-0.13,0.08-0.16
		c0.18-0.15,0.64,0.09,0.78,0.23c1.37,1.32,2.92,1.65,2.85,1.32c-0.04-0.19-1.08-0.6-1.89-2.04c-0.32-0.57-1.51-0.11-1.86,0.16
		c-0.11,0.09-1.35,1.22-2.12,1.99c-0.56,0.43-1.38,1.01-2.14,1.3c-0.05,0.02-0.09,0.02-0.14,0.03c-0.14,0.11-0.26,0.19-0.35,0.23
		c-0.27,0.13-1.19,0.92-2,1.43c-1.4,0.88-3.48,1.7-3.83,1.88c-0.35,0.18-0.65,1.11-1.77,1.59c-0.2,0.08-0.74,0.48-0.9,0.57
		c-0.04,0.02-0.23-0.05-0.17-0.22c0.03-0.11,0.13-0.25,0.44-0.48c0.08-0.16,0.4-0.36,0.41-0.39c0-0.06-0.5,0.26-0.64,0.32
		c-0.2,0.27-4.67,2.57-5.24,2.95C81.75,29.09,83.93,29.35,85.87,28.46 M86.84,24.9c0.34-0.2,1.75-1.01,2.06-1.26l0.46-0.42
		c1.03-0.95,3.43-3.16,4-3.49c0.34-0.2,0.74-0.4,0.96-0.57c0.31-0.24,0.58-0.91,1.3-1.51c0.22-0.19,1.72-1.57,2.33-2.12
		c0.38-0.46,0.83-0.93,1.21-1.06c0.67-0.24,1.06-0.02,1.58-0.22c0.52-0.19,1.44-0.92,1.44-0.92s0.01-0.18-0.15-0.39
		c-0.62-0.2-2.03-0.45-2.28-1.8c-0.35-1.88,0.92-2.53,1.54-2.69c0.39-0.1,1.24-0.18,1.88,0.18c0.63,0.35,0.95,0.55,1.84,0.62
		c0.27,0.02,0.23,0.32,0.08,0.51c-0.07,0.08,0.21,0.22,0.24,0.26c0.03,0.03,0.01,0.17,0.01,0.17s0.11-0.03,0.21,0.07
		c0.1,0.1,0.07,0.22,0.18,0.27c0.11,0.06,0.43,0.04,0.49,0.32c0.05,0.28-0.19,0.58-0.5,0.78c-0.27,0.17-0.36,0.27-0.74,0.46
		c0.15,0.23,0.19,0.88,0.32,0.83c0.43-0.18,1.11-0.28,1.31-0.69c0.29-0.62,0.86-0.56,1.02-0.74c0.16-0.18,1.6-1.5,1.84-1.75
		c0.63-0.67,1.34-0.93,1.6-1.23c0.18-0.21,0.4-0.58,0.6-0.91c0.34-0.54,2.68-2.82,3.68-3.79l0.45-0.44c0.27-0.29,1.12-1.63,1.29-1.9
		c0.08-0.13,0.6-0.42,0.99-0.71c0.08-0.06,0.86-0.53,1.17-0.71c0.26-0.16,0.69-0.05,0.03,0.37c-0.11,0.09-0.21,0.26-0.39,0.34
		c-0.05,0.07-0.22,0.21-0.25,0.26c0.03,0.03,0.23,0.25-0.08,0.61c-0.14,0.19-0.25,0.51-0.3,0.61c-0.51,1.07-1.22,1.21-1.42,1.54
		c-0.19,0.33-1.06,2.3-1.99,3.63c-0.54,0.77-1.38,1.64-1.51,1.89c-0.13,0.25-0.38,0.79-0.67,1.27c-0.94,1.52-2.85,3.06-3.17,3.38
		c-0.18,0.18-0.47,0.55-0.48,0.84c-0.01,0.13,0.13,1.02,0.14,1.62c0.02,0.8-0.78,1.71-0.81,2.01c-0.09,0.79-0.08,1.63-0.35,2.21
		c-1.38,2.94-1.79,3.41-1.79,3.41s2.94-0.28,3.6-0.21c0.67,0.08,2.63,0.25,3.22,0.25c0.59,0,1.47-0.01,1.73,0.08
		c0.29,0.11,0.56,0.37,0.6,0.57c0.03,0.2,0.38,0.85,0.22,1.2c-0.34,0.75-0.85,1.24-1.1,1.53l-0.36,0.39
		c-0.33,0.38-2.46,3.06-4.31,5.77c-0.13,0.18-1.32,1.96-1.41,2.14c-0.2,0.39-0.57,1.23-1.14,1.6c-0.29,0.19-1.17,1.39-1.44,2.04
		c-0.22,0.52-0.43,0.99-0.52,0.96c-0.56-0.24-0.4-0.47-0.41-0.7c-0.01-0.18-0.11-0.73-0.09-1.11c0.02-0.35,0.25-1.11,0.41-1.67
		c0.18-0.7,0.12-1.29,0.1-1.46c-0.02-0.17-0.04-0.57,0.18-0.76c0.45-0.4,1.28,0.02,1.51-0.17c0.83-0.65,0.84-4.12,2.24-5.99
		c-0.08,0.01-0.2,0.03-0.37,0.07c-0.45,0.11-2.85,0.19-3.49,0.36c-0.64,0.17-2.13,0.96-2.41,0.99c-0.29,0.03-0.33,0.07-0.33,0.07
		s-0.78,1.24-1.06,1.51c-0.28,0.26-0.96,0.97-1.22,1.23c-0.26,0.26-1.54,1.27-2.03,1.63c-0.28,0.21-0.77,0.95-0.87,1.06
		c-0.27,0.29-1.05,0.36-1.36,0.61c-0.31,0.25-0.66,0.65-1.05,0.93c-0.39,0.28-3.8,3.04-6.2,5.33c-0.16,0.16-0.59,0.58-0.72,0.74
		c-0.28,0.34-1.35,1.51-1.98,1.76c-0.33,0.13-0.9,0.83-1.31,1.41c-0.33,0.46-0.64,0.89-0.72,0.84c-0.5-0.34-0.29-0.54-0.25-0.77
		c0.03-0.19,0.06-0.74,0.16-1.11c0.12-0.48,0.49-1.03,0.76-1.56c0.34-0.64,0.39-1.25,0.41-1.42c0.02-0.17,0.09-0.56,0.34-0.71
		c0.54-0.31,1.22,0.18,1.53,0.15c0.94-0.11,2.23-4.22,4.12-5.86c0.73-0.63,3.34-1.65,3.6-2.06c0.43-0.69,0.67-0.59,0.78-0.9
		c0.11-0.31,0.43-1.03,0.56-1.28c0.12-0.21,1.89-2.83,2.07-3.19c0.18-0.35,0.73-1.07,0.93-1.25l0.29-0.28c0,0-0.11-0.2,0.01-0.55
		c0.07-0.21,1.12-1.97,1.26-2.44c0.09-0.31,0.38-2.27,0.38-2.27s-1.19,2.75-1.28,2.94c-0.28,0.62-0.72,1.15-1.6,1.64
		c-0.26,0.15-0.94,0.37-1.55,0.56c-0.34,0.36-0.74,0.69-1.23,0.91c-1.21,0.53-2.69,0.43-3.06,0.4c-0.61,0.45-1.32,0.85-2.14,1.01
		c-1.69,0.33-2.81,0.09-3.28-0.06c-0.37,0.21-0.67,0.35-0.87,0.41c-2.62,0.75-4.62,0.7-6.11-0.22c0.35-0.4,2.01-1.33,4.62-2.72
		C84.89,26.23,86.5,25.11,86.84,24.9 M101.5,21.78c-0.12,0.33-0.37,1.88-0.48,2.46c-0.04,0.22-0.4,0.72-0.37,0.74
		c0.05,0.04,1-0.32,1.26-0.4c0.66-0.21,1.11-0.64,0.15-0.89c-0.63-0.17-0.45-1.47-0.43-1.85C101.62,21.74,101.52,21.71,101.5,21.78
		 M111.98,26.94c-3.51,1.95-3.95,7.1-4.38,7.65c-0.71,0.91-1.19-0.02-1.62,0.51c-0.33,0.41,0.1,0.79-0.59,2.46
		c-0.21,0.5-0.35,1.16-0.3,1.52c0.06,0.43-0.06,0.74,0.19,0.71c0.13-0.01,0.26-1.34,0.91-2.17c0.09-0.12,0.69-0.89,0.89-1.06
		c0.55-0.46,0.99-1.65,1.04-1.88c0.39-2.12,1.37-2.89,2.6-5.02c0.37-0.63,0.55-1.57,1.7-1.98
		C112.56,27.63,112.34,26.76,111.98,26.94 M94.69,34.37c-0.03-0.19-0.5,0.27-1,0.5c-0.52,0.24-1.31,0.57-2.02,0.99
		c-1.32,0.78-2.51,4.08-3.99,5.89c-0.69,0.84-1.34,0.08-1.79,0.24c-0.49,0.17-0.42,1.19-0.69,1.71c-0.23,0.45-0.88,1.25-0.94,1.59
		c-0.15,0.91-0.3,1.03-0.1,1.24c0.1,0.1,0.55-1.45,1.38-2.06c0.42-0.31,0.83-0.5,1.31-0.93c0.25-0.22,1.06-1.23,1.31-1.67
		c0.72-1.27,1.73-2.47,2.63-3.47c0.68-0.75,1.53-1.96,2.55-2.37c1.17-0.48,1.94-1.09,1.81-1.17C94.78,34.63,94.74,34.66,94.69,34.37
		 M96.07,32.87c-0.07,0.25,0.25,0.41,0.55,0.06c2.42-2.83,3.19-3.03,4.27-3.9c-0.99-0.39-1.32-1.65-1.32-1.65
		C99.43,27.24,96.27,32.06,96.07,32.87 M104.04,27.1c1.33-0.23,2.79-1.6,5.08-1.91c2.66-0.36,4.37,0.39,4.66,0.25
		c0.44-0.21,0.92-0.43,0.91-0.47c-0.04-0.24-0.32-0.35-0.48-0.34c-0.71,0.05-3.22-0.09-4.4-0.23c-0.92-0.11-3.78-0.01-4.39,0.9
		c-0.17,0.24-0.86,1.06-1.61,1.23C103.3,26.61,103.65,27.17,104.04,27.1 M100.59,9.08c-0.31,0.2,1.01-0.13,1.29,0.11
		c0.36,0.29,0.05,1.17,0.48,1.09c0.89-0.16,1.16,1.11,1.79,1.14c0.22,0.01,1.64-0.1,1.6-0.39c-0.02-0.11-0.28-0.06-0.41-0.22
		c-0.07-0.09,0.08-0.46-0.44-0.24c0.06-0.08,0.17-0.23,0.15-0.35c-0.14-0.02-0.32-0.2-0.36-0.31c-0.03-0.08,0.11-0.15,0.14-0.25
		c0.05-0.19-0.05-0.16-0.16-0.16c-0.39-0.01-0.66-0.04-1.02-0.15c-0.18-0.06-0.6,0.76-0.75,0.46c-0.05-0.11-0.06-0.19-0.03-0.3
		c0.06-0.2,0.54-0.21,0.47-0.28C102.5,8.44,101.45,8.54,100.59,9.08 M105.67,13.66c1.02,0.91-1.47,1.29-2.03,0.91
		c-0.12-0.02-0.61-0.4-1.18-0.44c-0.33-0.02-1.04,0.69-1.64,0.86c-0.32,0.09-0.87-0.14-1.41,0.08c-0.06,0.02-0.12,0.05-0.18,0.09
		c-0.33,0.2-0.76,0.61-0.91,0.88l-0.23,0.27c-0.42,0.45-1.06,0.97-1.28,1.12c-0.26,0.17-0.77,0.52-1,0.81
		c-0.37,0.47-0.73,0.99-0.82,1.13c-0.09,0.14-0.54,0.28-0.88,0.49c-0.81,0.51-2.58,2.22-3.77,3.29c-0.61,0.48-0.06,0.59,0.8,0.04
		c1.03-0.71,1.88-1.35,2.09-1.59c0.45-0.51,1.28-1.41,1.86-0.95c0.04,0.03,0.32-0.26,0.52-0.68c0.43-0.93,1.7-1.89,3.07-2.75
		c0.57-0.36,0.94-0.4,1.54-0.82c0.12-0.08,0.3-0.47,0.52-0.72c0.06-0.05,0.11-0.1,0.15-0.14c0.21-0.16,0.32,0.15,0.45,0.3
		c0.2,0.23,0.8,0.12,0.93,0.35c1.02,1.77,2.92,1.11,3.49,0.86c0.43-0.2,0.28-0.77,0.64-0.99c0.36-0.22,0.56,0.28,1.02,0.13
		c0.25-0.08,0.97-0.58,0.69-1.24c-0.15-0.35-0.65-0.74-0.64-1.05c0.01-0.31,0.7,0.23,0.83,0.06c0.45-0.57,0.49-0.92,0.87-1.46
		c0.91-1.3,1.92-2.5,2.9-2.91c0.45-0.19,0.75-0.45,0.72-0.49c-0.49-0.55,0.46-1.34,1-1.77c0.25-0.2,0.86-1.17,1.61-2.15
		c0.58-0.81,0.53-1.16,0.02-0.59c-1.13,1.12-2.93,2.8-3.47,3.57c-0.22,0.32-0.37,0.75-0.52,0.83c-0.15,0.08-0.69,0.43-1.19,0.78
		c-0.31,0.22-0.67,0.7-0.86,0.94c-0.18,0.25-0.92,1.05-1.43,1.41c-0.42,0.18-0.85,0.48-0.82,0.74c0.02,0.12-0.09,0.27-0.27,0.37
		C106.38,13.51,105.56,13.52,105.67,13.66 M97.01,26.1c0.69-0.25,1.5-0.75,1.94-1.24c0.77-1.11,1.52-2.93,1.96-4.09
		c-0.04-0.2-0.1-0.39-0.17-0.56C99.82,21.73,97.52,25.51,97.01,26.1 M100.6,19.87l-0.15-0.3l-7.43,7.83c0,0,2.03,0.18,3.16-1.19
		C96.31,26.07,99.56,21.37,100.6,19.87 M87.49,28.39c0.3,0.11,3.22,0.76,5.31-1.72c0.7-0.83,6.23-6.18,7.5-7.4l-0.12-0.25
		C98.43,20.29,88.03,27.82,87.49,28.39"/>
	<path class="st1" d="M155.43,64.27c0-1.49-1-2.54-2.96-2.54h-0.93v11.9h-2.32v-13.8h3.47c3.12,0,5.13,1.55,5.13,4.38
		c0,1.97-1.34,4.28-4.85,4.5v-1.78C154.67,66.79,155.43,65.76,155.43,64.27 M69.22,73.63c-2.18-3.41-3.31-5.28-3.9-5.56v-1.75
		c1.48-0.03,2.56-1.1,2.56-2.41c0-1.19-0.77-2.18-2.65-2.18H63.9v11.9h-2.32v-13.8h3.63c3.65,0,5.04,1.74,5.04,3.85
		c0,1.88-1.3,3.1-2.74,3.65c0.6,0.31,2.14,2.76,4.42,6.3H69.22z M200,59.83l-4.86,8.31v5.49h-2.32V68.1l-4.95-8.27h2.57l2.41,4.13
		c0.37,0.67,0.86,1.49,1.17,2.16l1.17-2.12l2.39-4.17H200z M113.64,66.84c0-2.05,0.75-3.85,2.08-5.13c1.3-1.26,3.14-2.01,5.28-2.01
		c2.3,0,4.22,0.8,5.53,2.16c1.19,1.26,1.83,2.95,1.83,4.9c0,2.07-0.75,3.9-2.1,5.15c-1.33,1.24-3.12,1.93-5.26,1.93
		c-2.06,0-3.78-0.61-5.06-1.7C114.48,70.86,113.64,69,113.64,66.84 M125.88,66.8c0-3.1-1.83-5.19-4.88-5.19
		c-2.94,0-4.91,1.97-4.91,5.19c0,3.2,1.97,5.17,4.91,5.17C123.92,71.97,125.88,70.01,125.88,66.8 M186.06,73.63h-2.17l-6.85-8.48
		c-0.71-0.88-1.11-1.42-1.46-1.99v10.47h-2.3v-13.8h2.34l6.59,8.17c0.8,0.98,1.19,1.51,1.53,2.07c0.02-0.57,0-1.26,0-1.93v-8.31
		h2.32V73.63z M145.18,73.63h-2.3v-8.79c0-0.5,0-0.88,0.04-1.47c-0.24,0.5-0.64,1.05-0.86,1.4l-3.31,4.92h-1.22l-3.58-4.98
		c-0.24-0.36-0.55-0.75-0.84-1.34c0.02,0.61,0.02,0.97,0.02,1.43v8.84h-2.3v-13.8h2.21l4.22,5.86c0.4,0.57,0.66,0.97,0.88,1.38
		c0.22-0.4,0.46-0.82,0.86-1.42l3.93-5.82h2.23V73.63z M112.14,72.63c-1.53,0.85-3.03,1.21-4.53,1.21c-4.53,0-7.2-3.02-7.2-6.96
		c0-4,3.05-7.18,7.69-7.18c1.61,0,2.94,0.35,3.76,0.77l-0.04,2.1c-1.15-0.67-2.28-1.01-3.69-1.01c-3.34,0-5.19,2.35-5.19,5.15
		c0,2.97,1.9,5.17,5.04,5.17c1.28,0,2.48-0.36,3.51-0.9L112.14,72.63z M44.39,66.84c0-2.05,0.75-3.85,2.08-5.13
		c1.3-1.26,3.14-2.01,5.28-2.01c2.3,0,4.22,0.8,5.53,2.16c1.19,1.26,1.83,2.95,1.83,4.9c0,2.07-0.75,3.9-2.1,5.15
		c-1.33,1.24-3.12,1.93-5.26,1.93c-2.06,0-3.78-0.61-5.06-1.7C45.23,70.86,44.39,69,44.39,66.84 M56.63,66.8
		c0-3.1-1.83-5.19-4.89-5.19c-2.94,0-4.9,1.97-4.9,5.19c0,3.2,1.97,5.17,4.9,5.17C54.66,71.97,56.63,70.01,56.63,66.8 M93.4,70.01
		c0,2.33-2.17,3.83-4.97,3.83c-2.01,0-3.38-0.63-4.31-1.19l0.97-1.65c0.73,0.48,1.88,1.03,3.25,1.03c1.19,0,2.58-0.5,2.58-1.76
		c0-2.12-3.51-2.53-5.28-4.4c-0.6-0.63-0.99-1.4-0.99-2.47c0-2.01,1.64-3.69,4.57-3.69c1.55,0,2.7,0.38,3.45,0.75l-0.02,2.05
		c-1-0.57-2.12-0.97-3.31-0.97c-1.26,0-2.3,0.5-2.3,1.59C87.04,65.86,93.4,65.77,93.4,70.01 M83.24,59.83l-0.64,1.88h-4v11.92h-2.34
		V61.71h-4.22v-1.88H83.24z M40.4,64.27c0-1.49-0.99-2.54-2.96-2.54h-0.93v11.9H34.2v-13.8h3.47c3.12,0,5.13,1.55,5.13,4.38
		c0,1.97-1.34,4.28-4.84,4.5v-1.78C39.64,66.79,40.4,65.76,40.4,64.27 M29.26,73.63c-2.18-3.41-3.31-5.28-3.9-5.56v-1.75
		c1.47-0.03,2.55-1.1,2.55-2.41c0-1.19-0.77-2.18-2.65-2.18h-1.32v11.9h-2.32v-13.8h3.62c3.65,0,5.04,1.74,5.04,3.85
		c0,1.88-1.3,3.1-2.74,3.65c0.6,0.31,2.14,2.76,4.42,6.3H29.26z M17.58,73.63h-2.32v-13.8h2.32V73.63z M164.46,62.88
		c-0.15,0.48-4.13,10.74-4.13,10.74h-2.3l5.64-13.84h1.61l5.77,13.84h-2.5l-1.64-4.25h-3.32l0.71-1.89h1.89
		C165.29,65.19,164.5,63.08,164.46,62.88 M6.43,62.88C6.28,63.36,2.3,73.63,2.3,73.63H0l5.64-13.84h1.61l5.77,13.84h-2.5l-1.65-4.25
		H5.55l0.71-1.89h1.89C7.27,65.19,6.47,63.08,6.43,62.88"/>
	<path class="st1" d="M140.03,90.42c-0.99,0.52-2.01,0.75-3.01,0.75c-3.17,0-5.13-2.15-5.13-5.11c0-2.94,2.18-5.27,5.33-5.27
		c1.28,0,2.24,0.31,2.73,0.6v1.2c-0.76-0.46-1.51-0.79-2.78-0.79c-2.39,0-4.01,1.82-4.01,4.17c0,2.42,1.49,4.16,4,4.16
		c0.91,0,1.8-0.28,2.52-0.65L140.03,90.42z M129.78,91.02h-1.19V80.88h1.19V91.02z M121.21,81.92v9.1h-1.19V80.88h2.21
		c2.52,0,3.54,1.21,3.54,2.74c0,1.45-0.98,2.36-2.1,2.74c0.34,0.17,1.56,2.06,3.3,4.66h-1.41c-1.7-2.57-2.71-4.19-3.19-4.31v-1.01
		c1.21-0.04,2.12-0.93,2.12-1.97c0-0.97-0.55-1.82-2.26-1.82H121.21z M117.89,80.88l-0.45,1.05h-3.6v3.43h3.57v1.03h-3.57v4.63
		h-1.19V80.88H117.89z M97.49,91.02h-1.19v-4.63h-5.86v4.63h-1.19V80.88h1.19v4.48h5.86v-4.48h1.19V91.02z M68.28,86
		c0,1.59-0.6,2.93-1.61,3.85c-0.94,0.86-2.21,1.32-3.69,1.32c-1.44,0-2.7-0.45-3.62-1.26c-1.06-0.93-1.67-2.29-1.67-3.91
		c0-1.52,0.57-2.83,1.51-3.76c0.94-0.91,2.26-1.45,3.78-1.45c1.63,0,3.01,0.6,3.95,1.6C67.77,83.32,68.28,84.57,68.28,86 M66.99,86
		c0-2.36-1.38-4.13-4.01-4.13c-2.47,0-4.01,1.62-4.01,4.13c0,2.51,1.54,4.13,4.01,4.13C65.45,90.13,66.99,88.51,66.99,86
		 M87.8,80.88l-0.42,1.05h-3.04v9.1h-1.19v-9.1h-3.07v-1.05H87.8z M78.27,87.63c0,0.92-0.27,1.86-0.98,2.54c-0.63,0.6-1.61,1-3.04,1
		c-1.35,0-2.24-0.37-2.83-0.89c-0.86-0.8-1.04-1.98-1.04-2.91v-6.5h1.19v6.51c0,0.69,0.16,1.54,0.76,2.11
		c0.41,0.4,1.03,0.66,1.95,0.66c1.02,0,1.69-0.26,2.13-0.68c0.49-0.49,0.66-1.2,0.66-2v-6.6h1.19V87.63z M56.23,88.54
		c0,1.57-1.45,2.63-3.38,2.63c-1.4,0-2.34-0.43-2.92-0.8l0.57-0.91c0.41,0.28,1.27,0.71,2.34,0.71c0.98,0,2.13-0.45,2.13-1.52
		c0-1.78-2.57-2.15-3.88-3.49c-0.45-0.46-0.76-1.05-0.76-1.83c0-1.43,1.14-2.53,3.09-2.53c1.14,0,1.9,0.26,2.37,0.49v1.2
		c-0.57-0.37-1.46-0.66-2.34-0.66c-1.04,0-1.95,0.4-1.95,1.39C51.49,85.48,56.23,85.49,56.23,88.54 M145.62,82.61
		c-0.11,0.37-3.23,8.41-3.23,8.41h-1.19l4.09-10.18h0.67l4.11,10.18h-1.25l-1.39-3.6l-2.6,0l0.4-1.03h1.81
		C146.32,84.52,145.66,82.77,145.62,82.61 M106.5,82.61c-0.11,0.37-3.23,8.41-3.23,8.41h-1.19l4.09-10.18h0.67l4.11,10.18h-1.25
		l-1.39-3.6l-2.6,0l0.4-1.03h1.81C107.2,84.52,106.54,82.77,106.5,82.61"/>
</g>
</svg>
